<svg xmlns="http://www.w3.org/2000/svg" xmlns:xlink="http://www.w3.org/1999/xlink" width="500" zoomAndPan="magnify" viewBox="0 0 375 374.999991" height="500" preserveAspectRatio="xMidYMid meet" version="1.0"><defs><g/><clipPath id="8242b876da"><path d="M 120 86 L 254.835938 86 L 254.835938 211 L 120 211 Z M 120 86 " clip-rule="nonzero"/></clipPath></defs><g fill="#f5fafa" fill-opacity="1"><g transform="translate(114.311094, 258.460471)"><g><path d="M 10.226562 0.457031 C 14.976562 0.457031 18.910156 -1.933594 18.910156 -6.882812 C 18.910156 -12.027344 14.519531 -13.109375 11.046875 -13.996094 C 8.585938 -14.585938 6.621094 -15.078125 6.621094 -16.683594 C 6.621094 -18.191406 8.226562 -18.878906 9.832031 -18.878906 C 11.699219 -18.878906 13.339844 -17.960938 13.339844 -15.960938 L 18.222656 -15.960938 C 18.222656 -20.550781 15.242188 -23.367188 9.964844 -23.367188 C 4.882812 -23.367188 1.640625 -20.878906 1.640625 -16.484375 C 1.640625 -11.535156 5.832031 -10.519531 9.308594 -9.667969 C 11.800781 -9.113281 13.898438 -8.621094 13.898438 -6.816406 C 13.898438 -5.113281 12.0625 -4.128906 10.191406 -4.128906 C 8.160156 -4.128906 6.324219 -5.210938 6.324219 -7.40625 L 1.3125 -7.40625 C 1.3125 -2.492188 4.949219 0.457031 10.226562 0.457031 Z M 10.226562 0.457031 "/></g></g></g><g fill="#f5fafa" fill-opacity="1"><g transform="translate(144.426185, 258.460471)"><g><path d="M 11.4375 -22.941406 L 2.621094 -22.941406 L 2.621094 0 L 7.570312 0 L 7.570312 -7.144531 L 11.4375 -7.144531 C 16.058594 -7.144531 19.535156 -10.519531 19.535156 -15.042969 C 19.535156 -19.566406 16.027344 -22.941406 11.4375 -22.941406 Z M 11.210938 -11.734375 L 7.570312 -11.734375 L 7.570312 -18.320312 L 11.210938 -18.320312 C 13.175781 -18.320312 14.519531 -16.945312 14.519531 -15.042969 C 14.519531 -13.144531 13.175781 -11.734375 11.210938 -11.734375 Z M 11.210938 -11.734375 "/></g></g></g><g fill="#f5fafa" fill-opacity="1"><g transform="translate(174.63957, 258.460471)"><g><path d="M 13.503906 0.523438 C 20.484375 0.523438 25.695312 -4.621094 25.695312 -11.472656 C 25.695312 -18.289062 20.484375 -23.433594 13.503906 -23.433594 C 6.488281 -23.433594 1.246094 -18.253906 1.246094 -11.472656 C 1.246094 -4.652344 6.488281 0.523438 13.503906 0.523438 Z M 13.503906 -4.164062 C 9.40625 -4.164062 6.292969 -7.339844 6.292969 -11.472656 C 6.292969 -15.601562 9.40625 -18.746094 13.503906 -18.746094 C 17.601562 -18.746094 20.648438 -15.632812 20.648438 -11.472656 C 20.648438 -7.308594 17.601562 -4.164062 13.503906 -4.164062 Z M 13.503906 -4.164062 "/></g></g></g><g fill="#f5fafa" fill-opacity="1"><g transform="translate(211.438857, 258.460471)"><g><path d="M 18.417969 -22.941406 L 0.6875 -22.941406 L 0.6875 -18.320312 L 7.078125 -18.320312 L 7.078125 0 L 12.027344 0 L 12.027344 -18.320312 L 18.417969 -18.320312 Z M 18.417969 -22.941406 "/></g></g></g><g fill="#f5fafa" fill-opacity="1"><g transform="translate(240.407148, 258.460471)"><g><path d="M 10.226562 0.457031 C 14.976562 0.457031 18.910156 -1.933594 18.910156 -6.882812 C 18.910156 -12.027344 14.519531 -13.109375 11.046875 -13.996094 C 8.585938 -14.585938 6.621094 -15.078125 6.621094 -16.683594 C 6.621094 -18.191406 8.226562 -18.878906 9.832031 -18.878906 C 11.699219 -18.878906 13.339844 -17.960938 13.339844 -15.960938 L 18.222656 -15.960938 C 18.222656 -20.550781 15.242188 -23.367188 9.964844 -23.367188 C 4.882812 -23.367188 1.640625 -20.878906 1.640625 -16.484375 C 1.640625 -11.535156 5.832031 -10.519531 9.308594 -9.667969 C 11.800781 -9.113281 13.898438 -8.621094 13.898438 -6.816406 C 13.898438 -5.113281 12.0625 -4.128906 10.191406 -4.128906 C 8.160156 -4.128906 6.324219 -5.210938 6.324219 -7.40625 L 1.3125 -7.40625 C 1.3125 -2.492188 4.949219 0.457031 10.226562 0.457031 Z M 10.226562 0.457031 "/></g></g></g><g fill="#f5fafa" fill-opacity="1"><g transform="translate(62.661278, 279.478107)"><g><path d="M 2.453125 -7.359375 L 2.453125 -4.421875 L 6.671875 -4.421875 L 6.671875 -3.390625 L 2.453125 -3.390625 L 2.453125 0 L 1.265625 0 L 1.265625 -8.40625 L 7.1875 -8.40625 L 7.1875 -7.359375 Z M 2.453125 -7.359375 "/></g></g></g><g fill="#f5fafa" fill-opacity="1"><g transform="translate(79.89071, 279.478107)"><g><path d="M 1.265625 -8.40625 L 2.453125 -8.40625 L 2.453125 0 L 1.265625 0 Z M 1.265625 -8.40625 "/></g></g></g><g fill="#f5fafa" fill-opacity="1"><g transform="translate(93.220134, 279.478107)"><g><path d="M 8.484375 -8.40625 L 8.484375 0 L 7.5 0 L 2.453125 -6.265625 L 2.453125 0 L 1.265625 0 L 1.265625 -8.40625 L 2.25 -8.40625 L 7.28125 -2.140625 L 7.28125 -8.40625 Z M 8.484375 -8.40625 "/></g></g></g><g fill="#f5fafa" fill-opacity="1"><g transform="translate(112.573566, 279.478107)"><g><path d="M 1.265625 -8.40625 L 4.796875 -8.40625 C 5.679688 -8.40625 6.46875 -8.226562 7.15625 -7.875 C 7.851562 -7.519531 8.390625 -7.023438 8.765625 -6.390625 C 9.148438 -5.753906 9.34375 -5.023438 9.34375 -4.203125 C 9.34375 -3.378906 9.148438 -2.648438 8.765625 -2.015625 C 8.390625 -1.378906 7.851562 -0.882812 7.15625 -0.53125 C 6.46875 -0.175781 5.679688 0 4.796875 0 L 1.265625 0 Z M 4.734375 -1.046875 C 5.410156 -1.046875 6.003906 -1.175781 6.515625 -1.4375 C 7.035156 -1.707031 7.4375 -2.078125 7.71875 -2.546875 C 8 -3.023438 8.140625 -3.578125 8.140625 -4.203125 C 8.140625 -4.828125 8 -5.375 7.71875 -5.84375 C 7.4375 -6.320312 7.035156 -6.691406 6.515625 -6.953125 C 6.003906 -7.222656 5.410156 -7.359375 4.734375 -7.359375 L 2.453125 -7.359375 L 2.453125 -1.046875 Z M 4.734375 -1.046875 "/></g></g></g><g fill="#f5fafa" fill-opacity="1"><g transform="translate(132.09501, 279.478107)"><g/></g></g><g fill="#f5fafa" fill-opacity="1"><g transform="translate(144.932442, 279.478107)"><g><path d="M 4.46875 -2.90625 L 4.46875 0 L 3.28125 0 L 3.28125 -2.921875 L -0.046875 -8.40625 L 1.234375 -8.40625 L 3.921875 -3.96875 L 6.625 -8.40625 L 7.8125 -8.40625 Z M 4.46875 -2.90625 "/></g></g></g><g fill="#f5fafa" fill-opacity="1"><g transform="translate(162.305872, 279.478107)"><g><path d="M 5.046875 0.09375 C 4.203125 0.09375 3.4375 -0.0859375 2.75 -0.453125 C 2.070312 -0.828125 1.539062 -1.34375 1.15625 -2 C 0.769531 -2.65625 0.578125 -3.390625 0.578125 -4.203125 C 0.578125 -5.003906 0.769531 -5.734375 1.15625 -6.390625 C 1.539062 -7.046875 2.070312 -7.5625 2.75 -7.9375 C 3.4375 -8.3125 4.203125 -8.5 5.046875 -8.5 C 5.890625 -8.5 6.648438 -8.3125 7.328125 -7.9375 C 8.015625 -7.5625 8.546875 -7.046875 8.921875 -6.390625 C 9.304688 -5.742188 9.5 -5.015625 9.5 -4.203125 C 9.5 -3.378906 9.304688 -2.640625 8.921875 -1.984375 C 8.546875 -1.335938 8.015625 -0.828125 7.328125 -0.453125 C 6.648438 -0.0859375 5.890625 0.09375 5.046875 0.09375 Z M 5.046875 -0.96875 C 5.660156 -0.96875 6.210938 -1.109375 6.703125 -1.390625 C 7.203125 -1.671875 7.59375 -2.054688 7.875 -2.546875 C 8.15625 -3.035156 8.296875 -3.585938 8.296875 -4.203125 C 8.296875 -4.804688 8.15625 -5.351562 7.875 -5.84375 C 7.59375 -6.34375 7.203125 -6.726562 6.703125 -7 C 6.210938 -7.28125 5.660156 -7.421875 5.046875 -7.421875 C 4.429688 -7.421875 3.875 -7.28125 3.375 -7 C 2.875 -6.726562 2.484375 -6.34375 2.203125 -5.84375 C 1.921875 -5.351562 1.78125 -4.804688 1.78125 -4.203125 C 1.78125 -3.585938 1.921875 -3.035156 2.203125 -2.546875 C 2.484375 -2.054688 2.875 -1.671875 3.375 -1.390625 C 3.875 -1.109375 4.429688 -0.96875 5.046875 -0.96875 Z M 5.046875 -0.96875 "/></g></g></g><g fill="#f5fafa" fill-opacity="1"><g transform="translate(181.995316, 279.478107)"><g><path d="M 4.734375 0.09375 C 3.617188 0.09375 2.75 -0.222656 2.125 -0.859375 C 1.5 -1.503906 1.1875 -2.425781 1.1875 -3.625 L 1.1875 -8.40625 L 2.390625 -8.40625 L 2.390625 -3.671875 C 2.390625 -1.867188 3.175781 -0.96875 4.75 -0.96875 C 5.519531 -0.96875 6.109375 -1.1875 6.515625 -1.625 C 6.921875 -2.070312 7.125 -2.753906 7.125 -3.671875 L 7.125 -8.40625 L 8.296875 -8.40625 L 8.296875 -3.625 C 8.296875 -2.414062 7.984375 -1.492188 7.359375 -0.859375 C 6.734375 -0.222656 5.859375 0.09375 4.734375 0.09375 Z M 4.734375 0.09375 "/></g></g></g><g fill="#f5fafa" fill-opacity="1"><g transform="translate(201.096751, 279.478107)"><g><path d="M 6.875 0 L 5.0625 -2.578125 C 4.84375 -2.566406 4.664062 -2.5625 4.53125 -2.5625 L 2.453125 -2.5625 L 2.453125 0 L 1.265625 0 L 1.265625 -8.40625 L 4.53125 -8.40625 C 5.625 -8.40625 6.484375 -8.144531 7.109375 -7.625 C 7.734375 -7.101562 8.046875 -6.382812 8.046875 -5.46875 C 8.046875 -4.820312 7.882812 -4.269531 7.5625 -3.8125 C 7.238281 -3.351562 6.78125 -3.019531 6.1875 -2.8125 L 8.1875 0 Z M 4.5 -3.578125 C 5.257812 -3.578125 5.835938 -3.738281 6.234375 -4.0625 C 6.640625 -4.394531 6.84375 -4.863281 6.84375 -5.46875 C 6.84375 -6.082031 6.640625 -6.550781 6.234375 -6.875 C 5.835938 -7.195312 5.257812 -7.359375 4.5 -7.359375 L 2.453125 -7.359375 L 2.453125 -3.578125 Z M 4.5 -3.578125 "/></g></g></g><g fill="#f5fafa" fill-opacity="1"><g transform="translate(219.430185, 279.478107)"><g/></g></g><g fill="#f5fafa" fill-opacity="1"><g transform="translate(232.267617, 279.478107)"><g><path d="M 3.703125 0.09375 C 3.078125 0.09375 2.46875 0 1.875 -0.1875 C 1.289062 -0.382812 0.828125 -0.640625 0.484375 -0.953125 L 0.9375 -1.890625 C 1.257812 -1.609375 1.671875 -1.375 2.171875 -1.1875 C 2.671875 -1.007812 3.179688 -0.921875 3.703125 -0.921875 C 4.398438 -0.921875 4.921875 -1.035156 5.265625 -1.265625 C 5.609375 -1.503906 5.78125 -1.820312 5.78125 -2.21875 C 5.78125 -2.507812 5.6875 -2.742188 5.5 -2.921875 C 5.3125 -3.097656 5.078125 -3.234375 4.796875 -3.328125 C 4.523438 -3.429688 4.140625 -3.539062 3.640625 -3.65625 C 3.003906 -3.8125 2.492188 -3.960938 2.109375 -4.109375 C 1.722656 -4.265625 1.390625 -4.5 1.109375 -4.8125 C 0.835938 -5.132812 0.703125 -5.5625 0.703125 -6.09375 C 0.703125 -6.539062 0.816406 -6.941406 1.046875 -7.296875 C 1.285156 -7.660156 1.644531 -7.953125 2.125 -8.171875 C 2.601562 -8.390625 3.195312 -8.5 3.90625 -8.5 C 4.40625 -8.5 4.894531 -8.429688 5.375 -8.296875 C 5.851562 -8.171875 6.265625 -7.988281 6.609375 -7.75 L 6.21875 -6.796875 C 5.863281 -7.015625 5.484375 -7.179688 5.078125 -7.296875 C 4.679688 -7.410156 4.289062 -7.46875 3.90625 -7.46875 C 3.226562 -7.46875 2.71875 -7.34375 2.375 -7.09375 C 2.039062 -6.851562 1.875 -6.535156 1.875 -6.140625 C 1.875 -5.859375 1.96875 -5.625 2.15625 -5.4375 C 2.351562 -5.257812 2.59375 -5.117188 2.875 -5.015625 C 3.15625 -4.921875 3.539062 -4.816406 4.03125 -4.703125 C 4.664062 -4.546875 5.171875 -4.390625 5.546875 -4.234375 C 5.929688 -4.085938 6.257812 -3.859375 6.53125 -3.546875 C 6.8125 -3.234375 6.953125 -2.816406 6.953125 -2.296875 C 6.953125 -1.847656 6.832031 -1.441406 6.59375 -1.078125 C 6.351562 -0.722656 5.988281 -0.4375 5.5 -0.21875 C 5.019531 -0.0078125 4.421875 0.09375 3.703125 0.09375 Z M 3.703125 0.09375 "/></g></g></g><g fill="#f5fafa" fill-opacity="1"><g transform="translate(249.329052, 279.478107)"><g><path d="M 4.53125 -8.40625 C 5.625 -8.40625 6.484375 -8.144531 7.109375 -7.625 C 7.734375 -7.101562 8.046875 -6.382812 8.046875 -5.46875 C 8.046875 -4.5625 7.734375 -3.847656 7.109375 -3.328125 C 6.484375 -2.804688 5.625 -2.546875 4.53125 -2.546875 L 2.453125 -2.546875 L 2.453125 0 L 1.265625 0 L 1.265625 -8.40625 Z M 4.5 -3.59375 C 5.257812 -3.59375 5.835938 -3.753906 6.234375 -4.078125 C 6.640625 -4.398438 6.84375 -4.863281 6.84375 -5.46875 C 6.84375 -6.082031 6.640625 -6.550781 6.234375 -6.875 C 5.835938 -7.195312 5.257812 -7.359375 4.5 -7.359375 L 2.453125 -7.359375 L 2.453125 -3.59375 Z M 4.5 -3.59375 "/></g></g></g><g fill="#f5fafa" fill-opacity="1"><g transform="translate(267.602473, 279.478107)"><g><path d="M 6.609375 -2.09375 L 2.140625 -2.09375 L 1.21875 0 L -0.015625 0 L 3.796875 -8.40625 L 4.984375 -8.40625 L 8.796875 0 L 7.53125 0 Z M 6.1875 -3.0625 L 4.375 -7.171875 L 2.5625 -3.0625 Z M 6.1875 -3.0625 "/></g></g></g><g fill="#f5fafa" fill-opacity="1"><g transform="translate(285.995897, 279.478107)"><g><path d="M 5.015625 0.09375 C 4.171875 0.09375 3.410156 -0.0859375 2.734375 -0.453125 C 2.066406 -0.828125 1.539062 -1.335938 1.15625 -1.984375 C 0.769531 -2.640625 0.578125 -3.378906 0.578125 -4.203125 C 0.578125 -5.015625 0.769531 -5.742188 1.15625 -6.390625 C 1.539062 -7.046875 2.070312 -7.5625 2.75 -7.9375 C 3.425781 -8.3125 4.1875 -8.5 5.03125 -8.5 C 5.6875 -8.5 6.285156 -8.390625 6.828125 -8.171875 C 7.367188 -7.953125 7.832031 -7.625 8.21875 -7.1875 L 7.4375 -6.4375 C 6.800781 -7.09375 6.015625 -7.421875 5.078125 -7.421875 C 4.453125 -7.421875 3.882812 -7.28125 3.375 -7 C 2.875 -6.726562 2.484375 -6.34375 2.203125 -5.84375 C 1.921875 -5.351562 1.78125 -4.804688 1.78125 -4.203125 C 1.78125 -3.585938 1.921875 -3.035156 2.203125 -2.546875 C 2.484375 -2.054688 2.875 -1.671875 3.375 -1.390625 C 3.882812 -1.109375 4.453125 -0.96875 5.078125 -0.96875 C 6.015625 -0.96875 6.800781 -1.304688 7.4375 -1.984375 L 8.21875 -1.21875 C 7.832031 -0.789062 7.363281 -0.460938 6.8125 -0.234375 C 6.269531 -0.015625 5.671875 0.09375 5.015625 0.09375 Z M 5.015625 0.09375 "/></g></g></g><g fill="#f5fafa" fill-opacity="1"><g transform="translate(304.281334, 279.478107)"><g><path d="M 7.359375 -1.046875 L 7.359375 0 L 1.265625 0 L 1.265625 -8.40625 L 7.1875 -8.40625 L 7.1875 -7.359375 L 2.453125 -7.359375 L 2.453125 -4.78125 L 6.671875 -4.78125 L 6.671875 -3.75 L 2.453125 -3.75 L 2.453125 -1.046875 Z M 7.359375 -1.046875 "/></g></g></g><g clip-path="url(#8242b876da)"><path fill="#f5fafa" d="M 161.578125 162.316406 C 161.578125 167.890625 163.933594 173.65625 167.414062 179.285156 C 167.550781 179.417969 167.683594 179.632812 167.761719 179.769531 C 168.808594 181.429688 169.984375 183.117188 171.242188 184.699219 C 176.171875 191.160156 182.222656 197.140625 187.363281 201.886719 C 192.503906 197.167969 198.472656 191.160156 203.398438 184.699219 L 203.746094 184.273438 L 209.71875 188.855469 L 209.371094 189.285156 C 203.265625 197.355469 195.6875 204.511719 189.851562 209.738281 C 188.460938 211.054688 186.238281 211.054688 184.84375 209.820312 C 179.007812 204.539062 171.429688 197.382812 165.246094 189.3125 C 164.28125 187.996094 163.292969 186.65625 162.410156 185.289062 L 140.320312 185.289062 C 138.230469 185.289062 136.570312 183.628906 136.570312 181.539062 L 136.570312 129.554688 L 126.289062 136.714844 C 124.550781 137.894531 122.273438 137.410156 121.070312 135.746094 C 119.890625 134.003906 120.292969 131.726562 121.980469 130.519531 L 185.113281 86.769531 C 186.371094 85.855469 188.113281 85.804688 189.421875 86.769531 L 252.636719 130.519531 C 254.296875 131.699219 254.777344 134.003906 253.601562 135.746094 C 252.421875 137.410156 250.066406 137.894531 248.378906 136.714844 L 238.929688 130.171875 L 238.929688 181.511719 C 238.929688 183.601562 237.269531 185.261719 235.179688 185.261719 L 212.503906 185.261719 C 211.539062 185.261719 210.628906 184.914062 209.933594 184.296875 L 199.222656 176.015625 C 196.035156 178.800781 191.859375 180.464844 187.335938 180.464844 C 182.328125 180.464844 177.832031 178.453125 174.484375 175.183594 C 171.21875 171.914062 169.210938 167.328125 169.210938 162.316406 C 169.210938 157.382812 171.21875 152.796875 174.484375 149.527344 C 177.832031 146.257812 182.328125 144.164062 187.335938 144.164062 C 192.339844 144.164062 196.839844 146.257812 200.105469 149.527344 C 203.371094 152.796875 205.460938 157.328125 205.460938 162.316406 C 205.460938 165.101562 204.84375 167.675781 203.71875 170.035156 L 213.734375 177.757812 L 231.457031 177.757812 L 231.457031 124.972656 L 187.335938 94.355469 L 144.070312 124.328125 L 144.070312 177.757812 L 158.042969 177.757812 C 155.554688 172.742188 154.027344 167.542969 154.027344 162.316406 C 154.027344 153.066406 157.777344 144.78125 163.828125 138.722656 C 166.878906 135.667969 170.574219 133.148438 174.671875 131.484375 C 178.554688 129.824219 182.863281 128.992188 187.386719 128.992188 C 196.546875 128.992188 204.898438 132.691406 210.949219 138.722656 C 214 141.78125 216.4375 145.480469 218.179688 149.582031 C 219.785156 153.46875 220.667969 157.785156 220.667969 162.316406 C 220.667969 166.898438 219.488281 171.429688 217.535156 175.960938 L 211.351562 171.164062 C 212.476562 168.160156 213.144531 165.238281 213.144531 162.316406 C 213.144531 158.777344 212.449219 155.425781 211.191406 152.449219 C 209.878906 149.3125 208.003906 146.472656 205.566406 144.03125 C 200.910156 139.367188 194.457031 136.527344 187.363281 136.527344 C 183.828125 136.527344 180.480469 137.222656 177.507812 138.484375 C 174.324219 139.742188 171.539062 141.671875 169.101562 144.058594 C 164.417969 148.75 161.578125 155.15625 161.578125 162.316406 Z M 194.859375 154.808594 C 192.902344 152.933594 190.28125 151.753906 187.363281 151.753906 C 184.363281 151.753906 181.738281 152.933594 179.863281 154.808594 L 179.785156 154.808594 C 177.910156 156.765625 176.734375 159.394531 176.734375 162.316406 C 176.734375 165.316406 177.910156 167.945312 179.863281 169.820312 L 179.863281 169.902344 C 181.738281 171.777344 184.390625 172.957031 187.363281 172.957031 C 190.28125 172.957031 192.929688 171.777344 194.859375 169.820312 C 196.734375 167.945312 197.992188 165.292969 197.992188 162.316406 C 197.964844 159.394531 196.785156 156.738281 194.859375 154.808594 Z M 194.859375 154.808594 " fill-opacity="1" fill-rule="nonzero"/></g></svg>