<?xml version="1.0" encoding="UTF-8" standalone="no"?>
<svg
   xmlns:dc="http://purl.org/dc/elements/1.1/"
   xmlns:cc="http://creativecommons.org/ns#"
   xmlns:rdf="http://www.w3.org/1999/02/22-rdf-syntax-ns#"
   xmlns:svg="http://www.w3.org/2000/svg"
   xmlns="http://www.w3.org/2000/svg"
   xmlns:sodipodi="http://sodipodi.sourceforge.net/DTD/sodipodi-0.dtd"
   xmlns:inkscape="http://www.inkscape.org/namespaces/inkscape"
   width="400"
   zoomAndPan="magnify"
   viewBox="0 0 300 299.99999"
   height="400"
   preserveAspectRatio="xMidYMid meet"
   version="1.0"
   id="svg11"
   sodipodi:docname="SPOTS-white-icon.svg"
   inkscape:version="1.0.1 (3bc2e813f5, 2020-09-07)">
  <metadata
     id="metadata15">
    <rdf:RDF>
      <cc:Work
         rdf:about="">
        <dc:format>image/svg+xml</dc:format>
        <dc:type
           rdf:resource="http://purl.org/dc/dcmitype/StillImage" />
        <dc:title></dc:title>
      </cc:Work>
    </rdf:RDF>
  </metadata>
  <sodipodi:namedview
     pagecolor="#ffffff"
     bordercolor="#666666"
     borderopacity="1"
     objecttolerance="10"
     gridtolerance="10"
     guidetolerance="10"
     inkscape:pageopacity="0"
     inkscape:pageshadow="2"
     inkscape:window-width="911"
     inkscape:window-height="480"
     id="namedview13"
     showgrid="false"
     inkscape:zoom="0.62932504"
     inkscape:cx="172.21639"
     inkscape:cy="235.99575"
     inkscape:window-x="779"
     inkscape:window-y="404"
     inkscape:window-maximized="0"
     inkscape:current-layer="svg11" />
  <defs
     id="defs5">
    <clipPath
       id="dfe27971bd">
      <path
         d="M 120,86 H 254.83594 V 211 H 120 Z m 0,0"
         clip-rule="nonzero"
         id="path2" />
    </clipPath>
  </defs>
  <g
     clip-path="url(#dfe27971bd)"
     id="g9"
     transform="matrix(2.1417031,0,0,2.1417031,-251.1892,-167.82967)">
    <path
       fill="#f5fafa"
       d="m 161.57812,162.31641 c 0,5.57421 2.35547,11.33984 5.83594,16.96875 0.13672,0.13281 0.26953,0.34765 0.34766,0.48437 1.04687,1.66016 2.22265,3.34766 3.48047,4.92969 4.92968,6.46094 10.98047,12.4414 16.12109,17.1875 5.14063,-4.71875 11.10938,-10.72656 16.03516,-17.1875 l 0.34765,-0.42578 5.97266,4.58203 -0.34766,0.42969 c -6.10547,8.07031 -13.68359,15.22656 -19.51953,20.45312 -1.39062,1.31641 -3.61328,1.31641 -5.00781,0.082 -5.83594,-5.28125 -13.41406,-12.4375 -19.59766,-20.50781 -0.96484,-1.31641 -1.95312,-2.65625 -2.83593,-4.02344 h -22.08985 c -2.08984,0 -3.75,-1.66015 -3.75,-3.75 v -51.98437 l -10.28125,7.16015 c -1.73828,1.17969 -4.01562,0.69532 -5.21875,-0.96875 -1.17968,-1.74218 -0.77734,-4.01953 0.91016,-5.22656 l 63.13281,-43.749999 c 1.25781,-0.914062 3,-0.964843 4.30859,0 l 63.21485,43.749999 c 1.66015,1.17969 2.14062,3.48438 0.96484,5.22656 -1.17969,1.66407 -3.53515,2.14844 -5.22265,0.96875 l -9.44922,-6.54297 v 51.33985 c 0,2.08984 -1.66016,3.75 -3.75,3.75 h -22.67578 c -0.96485,0 -1.875,-0.34766 -2.57032,-0.96485 l -10.71093,-8.28125 c -3.1875,2.78516 -7.36329,4.44922 -11.88672,4.44922 -5.00782,0 -9.50391,-2.01172 -12.85157,-5.28125 -3.26562,-3.26953 -5.27343,-7.85547 -5.27343,-12.86718 0,-4.9336 2.00781,-9.51954 5.27343,-12.78907 3.34766,-3.26953 7.84375,-5.36328 12.85157,-5.36328 5.0039,0 9.5039,2.09375 12.76953,5.36328 3.26562,3.26953 5.35547,7.80078 5.35547,12.78907 0,2.78515 -0.61719,5.35937 -1.74219,7.71875 l 10.01562,7.72265 h 17.72266 V 124.97266 L 187.33594,94.355469 144.07031,124.32813 v 53.42968 h 13.97266 c -2.48828,-5.01562 -4.01563,-10.21484 -4.01563,-15.4414 0,-9.25 3.75,-17.53516 9.80078,-23.59375 3.05079,-3.05469 6.7461,-5.57422 10.84375,-7.23829 3.88282,-1.66015 8.19141,-2.49218 12.71485,-2.49218 9.16015,0 17.51172,3.69922 23.5625,9.73047 3.05078,3.05859 5.48828,6.75781 7.23047,10.85937 1.60547,3.88672 2.48828,8.20313 2.48828,12.73438 0,4.58203 -1.17969,9.11328 -3.13281,13.64453 l -6.1836,-4.79688 c 1.125,-3.0039 1.79297,-5.92578 1.79297,-8.84765 0,-3.53907 -0.69531,-6.89063 -1.95312,-9.86719 -1.3125,-3.13672 -3.1875,-5.97656 -5.625,-8.41797 -4.65625,-4.66406 -11.10938,-7.50391 -18.20313,-7.50391 -3.53516,0 -6.88281,0.69532 -9.85547,1.95703 -3.18359,1.25782 -5.96875,3.1875 -8.40625,5.57422 -4.68359,4.69141 -7.52344,11.09766 -7.52344,18.25782 z m 33.28125,-7.50782 c -1.95703,-1.875 -4.57812,-3.05468 -7.49609,-3.05468 -3,0 -5.625,1.17968 -7.5,3.05468 h -0.0781 c -1.875,1.95703 -3.05079,4.58594 -3.05079,7.50782 0,3 1.17579,5.6289 3.12891,7.5039 v 0.082 c 1.875,1.875 4.52734,3.05469 7.5,3.05469 2.91797,0 5.56641,-1.17969 7.49609,-3.13672 1.875,-1.875 3.13282,-4.52734 3.13282,-7.5039 -0.0273,-2.92188 -1.20703,-5.57813 -3.13282,-7.50782 z m 0,0"
       fill-opacity="1"
       fill-rule="nonzero"
       id="path7" />
  </g>
</svg>
